{"asset":{"generator":"FBX2glTF","version":"2.0"},"scene":0,"buffers":[{"byteLength":18600,"uri":"e00760d16b.bin"}],"bufferViews":[{"buffer":0,"byteLength":3336,"byteOffset":0,"target":34963},{"buffer":0,"byteLength":5724,"byteOffset":3336,"target":34962},{"buffer":0,"byteLength":5724,"byteOffset":9060,"target":34962},{"buffer":0,"byteLength":3816,"byteOffset":14784,"target":34962}],"scenes":[{"name":"Root Scene","nodes":[0]}],"accessors":[{"componentType":5123,"type":"SCALAR","count":1668,"bufferView":0,"byteOffset":0},{"componentType":5126,"type":"VEC3","count":477,"bufferView":1,"byteOffset":0,"min":[-0.117598339915276,0.0258922930806875,-0.14803721010685],"max":[0.123633824288845,0.346208781003952,0.208713710308075]},{"componentType":5126,"type":"VEC3","count":477,"bufferView":2,"byteOffset":0},{"componentType":5126,"type":"VEC2","count":477,"bufferView":3,"byteOffset":0}],"images":[{"name":"ao_met_rough_Ducky_Metalness_Ducky_Roughness","uri":"2d05e0e79a.jpg"},{"name":"Ducky.jpg","uri":"3024da7784.jpg"},{"uri":"e332746d8b.jpg"}],"samplers":[{}],"textures":[{"name":"ao_met_rough_Ducky_Metalness_Ducky_Roughness","sampler":0,"source":0},{"name":"file8","sampler":0,"source":1},{"source":2}],"materials":[{"name":"DuckyMat","alphaMode":"OPAQUE","pbrMetallicRoughness":{"baseColorTexture":{"index":1,"texCoord":0},"baseColorFactor":[0.5,0.5,0.5,1],"metallicRoughnessTexture":{"index":0,"texCoord":0},"roughnessFactor":1,"metallicFactor":1},"extensions":{"MOZ_alt_materials":{"KHR_materials_unlit":1}}},{"pbrMetallicRoughness":{"baseColorTexture":{"index":2},"roughnessFactor":0.9,"metallicFactor":0},"extensions":{"KHR_materials_unlit":{}}}],"meshes":[{"name":"Ducky","primitives":[{"material":0,"mode":4,"attributes":{"NORMAL":2,"POSITION":1,"TEXCOORD_0":3},"indices":0}]}],"nodes":[{"name":"RootNode","translation":[0,0,0],"rotation":[0,0,0,1],"scale":[1,1,1],"children":[1]},{"name":"Ducky","translation":[0,0,0],"rotation":[0,0,0,1],"scale":[1,1,1],"mesh":0,"extras":{"components":{"shape":[{"shape":"box","halfExtents":{"x":0.12,"y":0.08,"z":0.16},"offset":{"x":0,"y":0.10507428354726372,"z":0.01001389278835843},"orientation":{"x":0,"y":0,"z":0,"w":1}},{"shape":"sphere","radius":0.1,"offset":{"x":0,"y":0.25635309523880356,"z":0.06766706475524609},"orientation":{"x":0,"y":0,"z":0,"w":1}},{"shape":"cylinder","radiusTop":0.04,"radiusBottom":0.04,"height":0.060000000000000026,"numSegments":8,"offset":{"x":0,"y":0.25852699290771664,"z":0.1811845389035555},"orientation":{"x":0.7071067811865476,"y":0,"z":0,"w":0.7071067811865475}}]}}}],"extensionsUsed":["MOZ_alt_materials","KHR_materials_unlit"]}
