{
  "accessors": [
    {
      "bufferView": 1,
      "componentType": 5126,
      "count": 40060,
      "max": [
        0.97737997770309448,
        0.98742997646331787,
        0.98742997646331787
      ],
      "min": [
        -0.97737997770309448,
        -0.98742997646331787,
        -0.98742997646331787
      ],
      "type": "VEC3"
    },
    {
      "bufferView": 1,
      "byteOffset": 480720,
      "componentType": 5126,
      "count": 40060,
      "max": [
        1,
        1,
        1
      ],
      "min": [
        -1,
        -1,
        -1
      ],
      "type": "VEC3"
    },
    {
      "bufferView": 0,
      "componentType": 5125,
      "count": 235008,
      "max": [
        40059
      ],
      "min": [
        0
      ],
      "type": "SCALAR"
    },
    {
      "bufferView": 1,
      "byteOffset": 961440,
      "componentType": 5126,
      "count": 15264,
      "max": [
        0.85456001758575439,
        0.70432001352310181,
        0.70432001352310181
      ],
      "min": [
        -0.85456001758575439,
        -0.8500099778175354,
        -0.70432001352310181
      ],
      "type": "VEC3"
    },
    {
      "bufferView": 1,
      "byteOffset": 1144608,
      "componentType": 5126,
      "count": 15264,
      "max": [
        1,
        1,
        1
      ],
      "min": [
        -1,
        -1,
        -1
      ],
      "type": "VEC3"
    },
    {
      "bufferView": 0,
      "byteOffset": 940032,
      "componentType": 5125,
      "count": 81408,
      "max": [
        15263
      ],
      "min": [
        0
      ],
      "type": "SCALAR"
    },
    {
      "bufferView": 1,
      "byteOffset": 1327776,
      "componentType": 5126,
      "count": 27174,
      "max": [
        0.95600998401641846,
        0.80229997634887695,
        0.80229997634887695
      ],
      "min": [
        -0.95600998401641846,
        -0.93261998891830444,
        -0.80229997634887695
      ],
      "type": "VEC3"
    },
    {
      "bufferView": 1,
      "byteOffset": 1653864,
      "componentType": 5126,
      "count": 27174,
      "max": [
        1,
        1,
        1
      ],
      "min": [
        -1,
        -1,
        -1
      ],
      "type": "VEC3"
    },
    {
      "bufferView": 0,
      "byteOffset": 1265664,
      "componentType": 5125,
      "count": 147456,
      "max": [
        27173
      ],
      "min": [
        0
      ],
      "type": "SCALAR"
    }
  ],
  "asset": {
    "extras": {
      "author": "Robin Butler (https://sketchfab.com/StarTrekGuy)",
      "license": "CC-BY-NC-4.0 (http://creativecommons.org/licenses/by-nc/4.0/)",
      "source": "https://sketchfab.com/models/3b5d15acb0de42f685d71686c651dcd8",
      "title": "RoboBit - Dex"
    },
    "generator": "Sketchfab-3.18.7",
    "version": "2.0"
  },
  "bufferViews": [
    {
      "buffer": 0,
      "byteLength": 1855488,
      "byteOffset": 0,
      "name": "floatBufferViews",
      "target": 34963
    },
    {
      "buffer": 0,
      "byteLength": 1979952,
      "byteOffset": 1855488,
      "byteStride": 12,
      "name": "floatBufferViews",
      "target": 34962
    }
  ],
  "buffers": [
    {
      "byteLength": 3835440,
      "uri": "scene.bin"
    }
  ],
  "materials": [
    {
      "doubleSided": true,
      "emissiveFactor": [
        0,
        0,
        0
      ],
      "name": "Material.001",
      "pbrMetallicRoughness": {
        "baseColorFactor": [
          1,
          1,
          1,
          1
        ],
        "metallicFactor": 0.68464176830000001,
        "roughnessFactor": 0
      }
    },
    {
      "doubleSided": true,
      "emissiveFactor": [
        0,
        1,
        1
      ],
      "name": "Material.002",
      "pbrMetallicRoughness": {
        "baseColorFactor": [
          0.072970822500000004,
          0.56779074669999996,
          0.80000007149999997,
          1
        ],
        "metallicFactor": 1,
        "roughnessFactor": 0
      }
    },
    {
      "doubleSided": true,
      "emissiveFactor": [
        0,
        0,
        0
      ],
      "name": "Material.003",
      "pbrMetallicRoughness": {
        "baseColorFactor": [
          0.0155131787,
          0.015778712600000001,
          0.0177319703,
          1
        ],
        "metallicFactor": 1,
        "roughnessFactor": 0.14805640240000001
      }
    }
  ],
  "meshes": [
    {
      "name": "Sphere_0",
      "primitives": [
        {
          "attributes": {
            "NORMAL": 1,
            "POSITION": 0
          },
          "indices": 2,
          "material": 0,
          "mode": 4
        }
      ]
    },
    {
      "name": "Sphere_1",
      "primitives": [
        {
          "attributes": {
            "NORMAL": 4,
            "POSITION": 3
          },
          "indices": 5,
          "material": 1,
          "mode": 4
        }
      ]
    },
    {
      "name": "Sphere_2",
      "primitives": [
        {
          "attributes": {
            "NORMAL": 7,
            "POSITION": 6
          },
          "indices": 8,
          "material": 2,
          "mode": 4
        }
      ]
    }
  ],
  "nodes": [
    {
      "children": [
        1
      ],
      "name": "RootNode (gltf orientation matrix)",
      "rotation": [
        -0.70710678118654746,
        -0,
        -0,
        0.70710678118654757
      ]
    },
    {
      "children": [
        2
      ],
      "name": "RootNode (model correction matrix)"
    },
    {
      "children": [
        3,
        5,
        7
      ],
      "name": "Root"
    },
    {
      "children": [
        4
      ],
      "matrix": [
        0.53789000000000009,
        0.54476000000000002,
        -0.64336000000000004,
        0,
        0.77724000000000004,
        -0.61599000000000015,
        0.12824000000000002,
        0,
        -0.32644000000000006,
        -0.56902000000000008,
        -0.75475000000000014,
        0,
        -2.0624599999999997,
        -4.1672299999999991,
        3.0181900000000002,
        1
      ],
      "name": "Lamp.001"
    },
    {
      "name": "Lamp.001"
    },
    {
      "children": [
        6
      ],
      "matrix": [
        -0.29086000000000006,
        0.95517000000000007,
        -0.05519000000000001,
        0,
        -0.77110000000000001,
        -0.19988000000000003,
        0.60452000000000006,
        0,
        0.56639000000000006,
        0.21839000000000003,
        0.7946700000000001,
        0,
        4.0762500000000008,
        1.00545,
        5.9038600000000008,
        1
      ],
      "name": "Lamp"
    },
    {
      "name": "Lamp"
    },
    {
      "children": [
        8,
        9,
        10
      ],
      "name": "Sphere"
    },
    {
      "mesh": 0,
      "name": "Sphere_0"
    },
    {
      "mesh": 1,
      "name": "Sphere_1"
    },
    {
      "mesh": 2,
      "name": "Sphere_2"
    }
  ],
  "scene": 0,
  "scenes": [
    {
      "name": "OSG_Scene",
      "nodes": [
        0
      ]
    }
  ]
}

